<svg width="13" height="32" viewBox="0 0 13 32" fill="none" xmlns="http://www.w3.org/2000/svg">
<g clip-path="url(#clip0_70021_25)">
<path fill-rule="evenodd" clip-rule="evenodd" d="M7.38116 7.08199C8.21716 7.25599 8.24016 7.14999 9.45016 7.73799C9.71116 7.91199 9.97216 8.08599 10.2332 8.25899C11.1512 9.06199 11.0692 9.12099 11.5332 9.80099L11.7522 10.238C12.2932 11.992 12.1972 12.01 12.0962 15.829C12.0922 17.029 12.1142 17.009 12.0712 17.477C11.9822 23.399 11.9522 24.855 11.9392 25.497C11.9212 25.899 11.9032 26.301 11.8852 26.704C11.6142 27.756 11.8722 27.857 10.7362 29.627C10.0752 30.348 10.0982 30.35 9.33716 30.948C9.15516 31.058 8.97316 31.168 8.79016 31.277L8.57416 31.392C6.14916 32.238 5.92216 32.11 3.75316 31.552L3.34016 31.383L2.90916 31.155C2.03316 30.517 1.99716 30.57 1.28316 29.741L1.05616 29.42C0.970158 29.282 0.885162 29.145 0.799162 29.007L0.614156 28.661C0.538156 28.481 0.46216 28.301 0.38616 28.121C-0.0738404 26.334 0.00615582 26.328 0.00415582 21.431C0.00115582 14.936 -0.00184229 14.954 0.0701577 13.198L0.162161 12.649L0.176161 12.541C0.310161 12.063 0.443161 11.584 0.577161 11.106L0.933157 10.239L1.26816 9.58599L1.38816 9.37499L1.55216 9.12099C1.88116 8.67099 1.86116 8.67799 2.23316 8.26099L2.46716 8.06199C2.57516 7.98999 2.68316 7.91799 2.79116 7.84599L3.22316 7.62699C3.28216 7.62999 3.34116 7.63399 3.40016 7.63699C3.52916 7.88799 4.11016 12.35 4.16316 12.761L4.22716 13.19C4.24616 13.332 4.25416 13.324 4.47916 14.96C4.59816 15.825 3.46516 15.403 3.43516 16.599C3.41516 17.407 3.21816 25.378 3.53216 26.706C3.69816 27.405 5.32716 30.16 7.93616 27.914C8.22216 27.493 8.22216 27.516 8.40216 27.042C8.41916 26.868 8.45916 26.893 8.47816 26.703C8.48316 26.651 8.48016 26.654 8.51016 26.045C8.50916 25.386 8.50816 24.727 8.50716 24.067L8.50516 23.629L8.50616 22.86C8.49316 21.479 8.49016 21.493 8.50616 20.113C8.50616 19.198 8.50716 18.283 8.50716 17.368C8.49516 16.457 8.63316 15.981 8.06516 15.571C7.63716 15.18 7.69616 15.123 7.43716 12.747L7.38416 12.205L7.24616 11L7.20916 10.662C7.12016 9.89499 7.03116 9.12799 6.94216 8.36099L6.84316 7.59099C6.83516 7.38099 6.81216 7.40399 6.86916 7.17799C7.18016 7.02599 7.18816 7.10399 7.38116 7.08199Z" fill="#EE5A66"/>
<path fill-rule="evenodd" clip-rule="evenodd" d="M3.85925 0.615999L3.98726 0.688999C4.56726 0.991999 5.14726 1.295 5.72826 1.598L6.60326 2.043C8.65126 3.29 8.53526 3.584 9.00826 7.378L9.05226 7.921C9.14626 8.803 9.24026 9.684 9.33426 10.566L9.39726 10.994C9.45426 11.362 9.51025 11.731 9.56725 12.099L9.58826 12.535C9.61126 12.684 9.63526 12.832 9.65826 12.981C9.70126 13.419 9.74426 13.857 9.78726 14.295L9.84026 14.838L9.88926 15.173L9.93926 15.607L9.98726 15.943L10.0213 16.377C9.83226 17.629 9.38026 16.653 9.36926 16.599C9.35426 16.524 9.35725 16.525 8.87225 12.417L8.84326 12.091C8.72526 11.001 8.65126 9.944 8.28526 7.039L8.19726 6.268C8.12226 5.69 8.04926 4.148 7.60526 3.537C7.18326 2.956 6.10326 2.499 5.10326 1.969C4.92526 1.885 4.74725 1.801 4.56825 1.717L4.31426 1.57C3.56526 1.225 3.59126 1.206 3.03526 0.866999C3.01126 0.801999 2.78825 0.127999 3.85925 0.611999V0.615999Z" fill="#EE5A66"/>
<path fill-rule="evenodd" clip-rule="evenodd" d="M6.01099 14.735C6.04299 14.916 6.047 14.893 6 15.062L6.01099 14.735Z" fill="#EE5A66"/>
<path fill-rule="evenodd" clip-rule="evenodd" d="M6.021 16.166C6.043 16.342 6.043 16.322 6 16.489L6.021 16.166Z" fill="#EE5A66"/>
</g>
<defs>
<clipPath id="clip0_70021_25">
<rect width="13" height="32" fill="white"/>
</clipPath>
</defs>
</svg>
